<!--?xml version="1.0" standalone="no"?-->
              <svg id="sw-js-blob-svg" viewBox="0 0 100 100" xmlns="http://www.w3.org/2000/svg" version="1.1">
                    <defs> 
                        <linearGradient id="sw-gradient" x1="0" x2="1" y1="1" y2="0">
                            <stop id="stop1" stop-color="rgba(132.316, 15.469, 208.326, 1)" offset="0%"></stop>
                            <stop id="stop2" stop-color="rgba(210.745, 16.838, 129.503, 1)" offset="100%"></stop>
                        </linearGradient>
                    </defs>
                <path fill="url(#sw-gradient)" d="M19.9,-33.2C24.6,-27.9,26.3,-20.4,28.9,-13.6C31.5,-6.7,34.9,-0.6,33.6,4.5C32.3,9.5,26.3,13.5,21.8,19.3C17.4,25.1,14.6,32.7,9.7,35.3C4.7,37.9,-2.5,35.4,-7.7,31.5C-12.9,27.5,-16,22.1,-20.4,17.5C-24.8,12.8,-30.3,9,-34.2,3C-38.2,-3.1,-40.5,-11.3,-37.6,-17C-34.8,-22.8,-26.8,-26.1,-19.7,-30.2C-12.6,-34.4,-6.3,-39.6,0.7,-40.6C7.6,-41.6,15.2,-38.5,19.9,-33.2Z" width="100%" height="100%" transform="translate(50 50)" stroke-width="0" style="transition: all 0.3s ease 0s;" stroke="url(#sw-gradient)"></path>
              </svg>